<svg width="9" height="5" viewBox="0 0 9 5" fill="none" xmlns="http://www.w3.org/2000/svg">
<path d="M0.828518 0.834535C0.719582 0.944626 0.725533 1.11816 0.836827 1.22245H0.836826L0.837234 1.22283L4.55443 4.67393L4.55452 4.67401C4.66386 4.77533 4.83607 4.77533 4.94541 4.67401L4.94549 4.67393L8.66268 1.22281L8.66292 1.2226C8.72057 1.16878 8.75 1.09679 8.75 1.02444C8.75 0.956649 8.72411 0.887826 8.67145 0.834537C8.56338 0.725159 8.38457 0.721521 8.27179 0.825949L8.27165 0.826065L4.74996 4.09553L1.22829 0.826079L1.22817 0.825963C1.11537 0.721541 0.93656 0.725173 0.828518 0.834535ZM0.828518 0.834535C0.828536 0.834516 0.828555 0.834497 0.828573 0.834479L0.915973 0.915991L0.82846 0.834593C0.828479 0.834574 0.828498 0.834554 0.828518 0.834535Z" fill="white" stroke="white" stroke-width="0.5" stroke-linejoin="round"/>
</svg>
