<svg width="18" height="10" viewBox="0 0 18 10" fill="none" xmlns="http://www.w3.org/2000/svg">
<path d="M0.911933 0.929636C0.687254 1.16358 0.699528 1.53233 0.92907 1.75395L0.929068 1.75395L0.92991 1.75476L8.59664 9.08836L8.59682 9.08852C8.82233 9.30382 9.17751 9.30383 9.40302 9.08852L9.4032 9.08836L17.0699 1.75473L17.0704 1.75427C17.1893 1.6399 17.25 1.48692 17.25 1.33318C17.25 1.18913 17.1966 1.04288 17.088 0.929642C16.8651 0.697212 16.4963 0.689482 16.2637 0.911391L16.2634 0.911638L8.99992 7.85925L1.73646 0.911668L1.73621 0.911422C1.50356 0.689525 1.13477 0.697242 0.911933 0.929636ZM0.911933 0.929636C0.911971 0.929597 0.912009 0.929557 0.912047 0.929518L1.09231 1.10273L0.911814 0.929761C0.911853 0.929719 0.911893 0.929678 0.911933 0.929636Z" fill="#2A3A2D" stroke="#2A3A2D" stroke-width="0.5" stroke-linejoin="round"/>
</svg>
