<svg width="7" height="6" viewBox="0 0 7 6" fill="none" xmlns="http://www.w3.org/2000/svg">
<path fill-rule="evenodd" clip-rule="evenodd" d="M5.22701 0.727344C5.33197 0.623298 5.47366 0.564741 5.62146 0.564333C5.76925 0.563925 5.91126 0.621699 6.0168 0.725165C6.12233 0.82863 6.18291 0.969474 6.18543 1.11725C6.18794 1.26502 6.13221 1.40784 6.03026 1.51484L3.03626 5.25734C2.9848 5.31277 2.9227 5.35725 2.85366 5.38812C2.78462 5.41899 2.71006 5.43563 2.63445 5.43703C2.55883 5.43843 2.48371 5.42456 2.41358 5.39627C2.34344 5.36797 2.27973 5.32582 2.22626 5.27234L0.242508 3.28784C0.187243 3.23635 0.142916 3.17425 0.112172 3.10525C0.0814282 3.03625 0.0648967 2.96176 0.0635641 2.88624C0.0622315 2.81071 0.0761252 2.73569 0.104416 2.66565C0.132707 2.5956 0.174815 2.53198 0.228229 2.47857C0.281643 2.42515 0.345269 2.38304 0.41531 2.35475C0.485351 2.32646 0.560373 2.31257 0.6359 2.3139C0.711427 2.31523 0.785912 2.33176 0.854912 2.36251C0.923911 2.39325 0.986011 2.43758 1.03751 2.49284L2.60801 4.06259L5.21276 0.743844C5.21741 0.738034 5.22242 0.732523 5.22776 0.727344H5.22701Z" fill="white"/>
</svg>
