<svg width="160" height="22" viewBox="0 0 160 22" fill="none" xmlns="http://www.w3.org/2000/svg">
<g clip-path="url(#clip0)">
<path d="M0 21.7007H13.5843V18.5578H3.89376V12.302H11.2714V9.30884H3.89376V3.44218H13.0866V0.299316H0V21.7007Z" fill="black"/>
<path d="M24.2111 22C28.8368 22 31.9108 19.0966 31.9108 15.385C31.9108 11.1048 29.3638 9.66801 24.4454 8.97957C20.8151 8.4408 20.1124 7.57277 20.1124 5.83671C20.1124 4.19046 21.3421 3.02311 23.7134 3.02311C26.1141 3.02311 27.373 3.98093 27.7536 6.22583H31.3253C30.9154 2.12515 28.222 0.0299072 23.7134 0.0299072C19.3513 0.0299072 16.4236 2.66393 16.4236 6.16597C16.4236 10.1769 18.795 11.7333 23.8013 12.4218C27.1973 12.9905 28.1635 13.7388 28.1635 15.7143C28.1635 17.6898 26.524 19.0068 24.2111 19.0068C20.6687 19.0068 19.8197 17.2109 19.5562 15.0558H15.8088C16.1016 19.0966 18.5022 22 24.2111 22Z" fill="black"/>
<path d="M39.2954 21.7007H43.2184V3.44218H49.0444V0.299316H33.4694V3.44218H39.2954V21.7007Z" fill="black"/>
<path d="M60.2282 22C65.7615 22 68.7184 18.917 68.7184 13.3197V0.299316H64.7954V12.9905C64.7954 17.4204 63.273 18.7973 60.2575 18.7973C57.1542 18.7973 55.9246 17.181 55.9246 13.2599V0.299316H52.0016V13.5592C52.0016 19.0667 54.9878 22 60.2282 22Z" fill="black"/>
<path d="M77.2278 18.5578V3.44218H79.4821C84.4005 3.44218 86.4498 6.22585 86.4498 10.8354V11.0748C86.4498 15.8041 84.1956 18.5578 79.5113 18.5578H77.2278ZM73.334 21.7007H79.6284C86.9768 21.7007 90.5193 17.2707 90.5193 11.0449V10.7755C90.5193 4.54966 86.9768 0.299316 79.687 0.299316H73.334V21.7007Z" fill="black"/>
<path d="M94.3506 21.7007H98.2736V0.299316H94.3506V21.7007Z" fill="black"/>
<path d="M112.813 18.7973C109.008 18.7973 106.226 15.7741 106.226 11.1048V10.8653C106.226 6.25578 108.656 3.17279 112.755 3.17279C116.854 3.17279 119.254 6.43537 119.254 10.8354V11.0748C119.254 15.7143 116.766 18.7973 112.813 18.7973ZM112.755 22C119.108 22 123.294 17.3007 123.294 11.0449V10.8054C123.294 4.51973 118.991 0 112.755 0C106.548 0 102.157 4.63945 102.157 10.8952V11.1347C102.157 17.3007 106.343 22 112.755 22Z" fill="black"/>
<path d="M133.847 22C138.063 22 141.635 19.7551 141.635 15.5347C141.635 12.9306 140.2 11.0748 137.741 10.1769C139.615 9.33878 140.844 7.87211 140.844 5.68707C140.844 2.1551 137.595 0 133.847 0C130.217 0 126.821 2.12517 126.821 5.74694C126.821 7.87211 127.992 9.42857 129.924 10.2068C127.582 11.0449 126.001 12.9306 126.001 15.6544C126.001 19.8449 129.69 22 133.847 22ZM133.847 19.0068C131.739 19.0068 129.924 17.7197 129.924 15.3252C129.924 12.9306 131.739 11.6435 133.876 11.6435C136.043 11.6435 137.741 12.9306 137.741 15.2952C137.741 17.6898 136.072 19.0068 133.847 19.0068ZM133.906 9.03946C132.091 9.03946 130.539 7.90204 130.539 5.95646C130.539 4.04082 132.003 2.87347 133.847 2.87347C135.721 2.87347 137.155 4.10068 137.155 5.92653C137.155 7.87211 135.809 9.03946 133.906 9.03946Z" fill="black"/>
<path d="M152.271 22C157.014 22 160 19.0667 160 14.7265C160 10.566 157.131 7.75238 153.12 7.75238C150.632 7.75238 148.904 8.85986 147.938 10.5061C148.055 5.62721 149.9 3.08299 152.71 3.08299C154.73 3.08299 155.55 4.04082 155.931 5.65714H159.561C159.063 1.91565 156.545 0 152.739 0C147.733 0 144.074 4.04082 144.074 11.4639V11.9728C144.074 17.6299 146.182 22 152.271 22ZM152.212 19.0667C149.841 19.0667 148.172 17.4204 148.172 14.5769C148.172 12.2122 149.841 10.5061 152.212 10.5061C154.613 10.5061 156.136 12.2422 156.136 14.8163C156.136 17.3605 154.555 19.0667 152.212 19.0667Z" fill="black"/>
</g>
<defs>
<clipPath id="clip0">
<rect width="160" height="22" fill="white"/>
</clipPath>
</defs>
</svg>
