<svg width="16" height="17" viewBox="0 0 16 17" fill="none" xmlns="http://www.w3.org/2000/svg">
<path fill-rule="evenodd" clip-rule="evenodd" d="M11.4601 11.1069L15.7639 15.3824C15.9151 15.5328 16.0001 15.7367 16 15.9493C15.9999 16.1619 15.9148 16.3658 15.7635 16.516C15.6121 16.6663 15.4068 16.7507 15.1928 16.7506C14.9788 16.7506 14.7736 16.666 14.6223 16.5156L10.3185 12.2401C9.03194 13.2301 7.41407 13.6959 5.79403 13.5429C4.17398 13.3899 2.67346 12.6296 1.59771 11.4165C0.521957 10.2035 -0.0482098 8.62885 0.00319691 7.013C0.0546036 5.39716 0.723722 3.86146 1.87443 2.71831C3.02514 1.57517 4.57101 0.910446 6.19754 0.859377C7.82408 0.808308 9.40911 1.37473 10.6302 2.44341C11.8513 3.51208 12.6167 5.00274 12.7707 6.61214C12.9247 8.22154 12.4558 9.82877 11.4593 11.1069H11.4601ZM6.4003 11.9819C7.67328 11.9819 8.89412 11.4795 9.79425 10.5853C10.6944 9.69106 11.2001 8.47824 11.2001 7.21363C11.2001 5.94902 10.6944 4.7362 9.79425 3.84199C8.89412 2.94777 7.67328 2.44541 6.4003 2.44541C5.12732 2.44541 3.90648 2.94777 3.00634 3.84199C2.10621 4.7362 1.60052 5.94902 1.60052 7.21363C1.60052 8.47824 2.10621 9.69106 3.00634 10.5853C3.90648 11.4795 5.12732 11.9819 6.4003 11.9819Z" fill="#56915D"/>
</svg>
